<svg width="50" height="50" viewBox="0 0 50 50" fill="none" xmlns="http://www.w3.org/2000/svg">
<g id="logo-a1">
<g id="block-ai">
<g id="logo-svg">
<mask id="path-1-inside-1_592_112" fill="white">
<path d="M20.4689 8.0043C22.1339 8.0043 23.7787 8.00574 25.4234 8.00381C26.591 8.00244 27.5684 8.43654 28.3303 9.31445C28.8363 9.89743 29.1488 10.5805 29.2002 11.3644C29.2187 11.6456 29.2395 11.9274 29.2396 12.209C29.2418 19.7694 29.2413 27.3298 29.2413 34.8901C29.2413 34.9769 29.2413 35.0636 29.2413 35.1624C31.9929 35.1624 34.7295 35.1624 37.476 35.1624C37.476 28.1319 37.476 21.1088 37.476 14.0682C35.4089 14.0682 33.3413 14.0682 31.2267 14.0682C32.0562 12.0279 32.8731 10.0187 33.692 8.00434C33.7786 8.00434 33.8595 8.00434 33.9404 8.00434C36.3229 8.00434 38.7054 8.01292 41.0878 8.00008C42.0283 7.995 42.8814 8.24561 43.6043 8.83427C44.2938 9.39565 44.7601 10.1247 44.9124 11.0167C44.9728 11.3704 44.9957 11.7345 44.9959 12.094C45.0003 20.4598 45.0033 28.8256 44.9933 37.1914C44.9923 38.047 44.7037 38.8209 44.1545 39.4991C43.5335 40.266 42.728 40.6863 41.7757 40.8557C41.5796 40.8906 41.3766 40.8992 41.1768 40.8993C35.9718 40.9016 30.7669 40.9053 25.5619 40.8974C24.5729 40.8958 23.6854 40.5919 22.9414 39.9058C22.2932 39.3081 21.8876 38.5909 21.7688 37.7158C21.7482 37.5639 21.7297 37.4102 21.7296 37.2574C21.7273 34.2454 21.7279 31.2335 21.7279 28.2215C21.7279 28.1404 21.7279 28.0593 21.7279 27.9619C19.4451 27.9619 17.1687 27.9619 14.8695 27.9619C14.8695 31.22 14.8695 34.4834 14.8695 37.8106C14.6182 37.4936 14.3329 37.3509 13.996 37.4174C13.818 37.4525 13.6291 37.5485 13.4961 37.672C13.1896 37.9565 13.1325 38.4489 13.4248 38.8276C13.6018 39.0569 13.843 39.1555 14.1401 39.1598C14.4334 39.1641 14.6335 39.0058 14.8243 38.8171C14.8243 39.4101 14.8649 39.9824 14.8095 40.5452C14.7746 40.8995 14.3956 41.1068 14.0249 41.0597C13.7127 41.0201 13.412 40.8233 13.3595 40.4244C13.3024 39.991 12.9971 39.6979 12.6342 39.68C12.2436 39.6608 11.9162 39.9453 11.8551 40.3963C11.7999 40.8031 11.5511 41.0017 11.2179 41.0589C10.8639 41.1198 10.522 40.917 10.3932 40.5929C10.338 40.4539 10.3241 40.2988 10.2732 40.1576C10.1234 39.7416 9.63608 39.5499 9.263 39.7654C9.00169 39.9164 8.89097 40.1657 8.85148 40.4592C8.80338 40.8167 8.45158 41.0831 8.07473 41.0635C7.69766 41.0438 7.3632 40.7499 7.35456 40.3958C7.34109 39.8431 7.351 39.2898 7.351 38.6852C7.59082 39.0387 7.88948 39.2182 8.26628 39.1446C8.4593 39.1068 8.66928 39.0001 8.80611 38.8604C9.18161 38.4771 9.10681 37.9207 8.66861 37.5753C8.33126 37.3094 7.74821 37.2975 7.35819 37.8681C7.35819 34.5425 7.35819 31.2544 7.35819 27.9473C5.75981 27.9473 4.18703 27.9473 2.55573 27.9473C2.80426 27.6826 3.01322 27.4329 2.87493 27.0971C2.81405 26.9492 2.70871 26.7939 2.58001 26.705C2.27834 26.4965 1.93535 26.5359 1.65593 26.8364C1.36968 27.1444 1.39698 27.3978 1.80231 27.9454C1.43229 27.9454 1.08534 27.9552 0.73942 27.9407C0.59876 27.9348 0.453991 27.8914 0.322255 27.8377C0.0758084 27.7372 -0.0259461 27.4242 0.00557147 27.2484C0.0663822 26.9091 0.282017 26.7024 0.568599 26.6865C0.934643 26.6661 1.18057 26.4326 1.17758 26.1081C1.17434 25.7561 0.944083 25.5324 0.568408 25.5077C0.3066 25.4905 0.00631145 25.2548 0.00590698 24.885C0.00553561 24.5454 0.223526 24.2889 0.597278 24.2523C0.880551 24.2246 1.08323 24.0867 1.16272 23.824C1.23274 23.5926 1.17094 23.3613 0.965268 23.2128C0.863676 23.1394 0.726076 23.0823 0.603157 23.079C0.335774 23.072 -0.00183319 22.8088 0.00502587 22.4455C0.011581 22.0983 0.223133 21.8459 0.577243 21.8198C0.97305 21.7907 1.37265 21.8131 1.74268 21.8131C1.64824 22.0276 1.50773 22.232 1.4745 22.4526C1.43713 22.7008 1.59886 22.9127 1.80243 23.0581C2.09361 23.266 2.45075 23.2103 2.71659 22.9337C3.00812 22.6304 2.9812 22.3698 2.584 21.8221C4.1798 21.8221 5.75537 21.8221 7.3508 21.8221C7.3508 21.7213 7.3508 21.6488 7.3508 21.5763C7.35081 20.1278 7.34295 18.6793 7.35381 17.2309C7.36015 16.3863 7.63472 15.6206 8.19577 14.9907C8.55679 14.5854 8.98421 14.2388 9.38529 13.8697C9.63688 13.6381 9.89324 13.4117 10.1503 13.1861C10.6814 12.72 11.215 12.2566 11.7464 11.7909C12.0976 11.483 12.4458 11.1717 12.7972 10.864C13.324 10.4026 13.8506 9.94093 14.3808 9.48349C14.723 9.18823 15.0562 8.8791 15.4212 8.61452C15.8712 8.28839 16.3902 8.07341 16.9446 8.05353C18.1117 8.01168 19.2805 8.01784 20.4689 8.0043ZM15.8823 16.7547C15.6613 16.9486 15.4435 17.1463 15.2183 17.3352C14.982 17.5334 14.8432 17.7403 14.8524 18.0895C14.8835 19.2662 14.8642 20.4442 14.8642 21.6217C14.8642 21.6938 14.8642 21.7659 14.8642 21.8398C17.1638 21.8398 19.4399 21.8398 21.7123 21.8398C21.7123 19.2522 21.7123 16.6783 21.7123 14.0963C20.8512 14.0963 20.0057 14.102 19.1603 14.0918C18.9761 14.0896 18.8435 14.1352 18.7209 14.274C18.6019 14.4087 18.4556 14.5197 18.3192 14.6387C17.8017 15.0905 17.2834 15.5412 16.7655 15.9924C16.4795 16.2415 16.1935 16.4906 15.8823 16.7547ZM11.9801 38.3823C12.0265 37.9985 11.834 37.7359 11.5287 37.5513C11.2424 37.3782 10.9402 37.4155 10.66 37.5752C10.0839 37.9035 10.0783 38.741 10.6725 39.0899C10.9535 39.255 11.2335 39.267 11.5113 39.1158C11.7835 38.9677 11.9761 38.7508 11.9801 38.3823ZM2.86934 25.1762C2.88731 25.0922 2.92847 25.0056 2.9195 24.9245C2.86104 24.3962 2.30012 24.0193 1.83372 24.3304C1.38962 24.6266 1.33052 25.1644 1.77113 25.523C2.14696 25.8288 2.69106 25.6098 2.86934 25.1762ZM13.1838 35.9507C12.9253 35.5198 12.4002 35.4952 12.0898 35.8993C11.9457 36.0868 11.9403 36.4346 12.0784 36.6318C12.222 36.8371 12.5546 36.957 12.7789 36.8844C13.2014 36.7478 13.3624 36.4001 13.1838 35.9507ZM9.34082 35.6638C9.30268 35.6897 9.26473 35.716 9.22635 35.7416C9.011 35.8854 8.90363 36.2403 9.00336 36.4823C9.14663 36.83 9.41175 36.9421 9.68963 36.9141C10.0297 36.8797 10.3334 36.4823 10.2352 36.0971C10.1415 35.7296 9.75237 35.529 9.34082 35.6638ZM4.39186 23.5828C4.37312 23.5403 4.35649 23.4966 4.33531 23.4553C4.23579 23.2613 3.99095 23.1475 3.77937 23.1956C3.57188 23.2428 3.38989 23.4575 3.36964 23.663C3.33373 24.0274 3.63273 24.2421 3.88574 24.2457C4.20238 24.2502 4.44421 23.9443 4.39186 23.5828ZM4.38498 25.9906C4.20865 25.6685 3.97861 25.5645 3.68715 25.6752C3.44892 25.7657 3.30175 26.0818 3.38818 26.3174C3.47997 26.5675 3.78517 26.7469 4.00108 26.6775C4.29891 26.5819 4.47173 26.2927 4.38498 25.9906ZM8.42873 33.9169C8.20815 33.7345 7.95036 33.745 7.79228 33.9426C7.65569 34.1134 7.69318 34.3984 7.87022 34.5351C8.00853 34.642 8.25766 34.6343 8.39134 34.5191C8.55734 34.376 8.5785 34.1694 8.42873 33.9169ZM10.6814 34.1509C10.6815 34.1847 10.6765 34.2193 10.6824 34.2519C10.7153 34.4334 10.8809 34.5886 11.0566 34.6058C11.2536 34.625 11.4265 34.517 11.4939 34.3325C11.5604 34.1505 11.4983 33.972 11.3269 33.8521C11.0998 33.6933 10.8515 33.7959 10.6814 34.1509ZM13.7406 34.3948C13.7882 34.4423 13.8306 34.497 13.8844 34.5359C14.0289 34.6406 14.1912 34.6438 14.3295 34.5437C14.4695 34.4424 14.5801 34.3089 14.5117 34.1069C14.4329 33.8742 14.2195 33.7407 14.0057 33.7984C13.7733 33.8611 13.6545 34.1048 13.7406 34.3948ZM5.61397 26.9738C5.55685 26.987 5.49686 26.9931 5.44317 27.0147C5.29716 27.0736 5.19589 27.2934 5.24568 27.4313C5.2972 27.574 5.51634 27.719 5.63744 27.6512C5.75241 27.5868 5.88977 27.4654 5.90924 27.3508C5.9367 27.1891 5.82287 27.0427 5.61397 26.9738ZM5.80504 22.7284C5.95785 22.5398 5.95122 22.4135 5.78009 22.2534C5.65921 22.1403 5.45261 22.1481 5.3305 22.2704C5.20897 22.3921 5.20363 22.5957 5.3186 22.7242C5.43664 22.8563 5.62867 22.8671 5.80504 22.7284ZM5.92475 24.9558C5.91221 24.9119 5.91363 24.8506 5.88459 24.8274C5.78667 24.7494 5.6831 24.6421 5.5717 24.6286C5.48146 24.6177 5.33156 24.7036 5.2906 24.787C5.24455 24.8808 5.24729 25.0571 5.30882 25.1297C5.3797 25.2133 5.55126 25.2752 5.65473 25.2492C5.75491 25.2241 5.82414 25.0755 5.92475 24.9558ZM9.72038 31.7991C9.611 31.7244 9.50884 31.7464 9.443 31.85C9.39878 31.9195 9.34819 32.0311 9.37522 32.0889C9.41429 32.1724 9.51985 32.274 9.59936 32.2761C9.684 32.2782 9.79911 32.1911 9.85085 32.1108C9.92418 31.9969 9.83548 31.8977 9.72038 31.7991ZM12.4727 31.8219C12.371 31.9098 12.2775 32.0061 12.3862 32.1433C12.4711 32.2504 12.5795 32.347 12.724 32.2436C12.8189 32.1757 12.9215 32.0937 12.8398 31.9472C12.7623 31.8081 12.6753 31.6966 12.4727 31.8219ZM7.20426 23.5628C7.20686 23.657 7.1744 23.7838 7.22258 23.8356C7.26509 23.8814 7.41351 23.872 7.48461 23.8323C7.52985 23.807 7.55647 23.6615 7.52591 23.6059C7.46529 23.4956 7.35341 23.4406 7.20426 23.5628ZM7.47246 26.0153C7.35807 25.895 7.25343 25.9543 7.197 26.0615C7.16378 26.1246 7.17187 26.2715 7.21368 26.2979C7.28087 26.3404 7.41354 26.3495 7.47823 26.3087C7.56822 26.252 7.60057 26.1354 7.47246 26.0153Z"/>
</mask>
<path d="M20.4689 8.0043C22.1339 8.0043 23.7787 8.00574 25.4234 8.00381C26.591 8.00244 27.5684 8.43654 28.3303 9.31445C28.8363 9.89743 29.1488 10.5805 29.2002 11.3644C29.2187 11.6456 29.2395 11.9274 29.2396 12.209C29.2418 19.7694 29.2413 27.3298 29.2413 34.8901C29.2413 34.9769 29.2413 35.0636 29.2413 35.1624C31.9929 35.1624 34.7295 35.1624 37.476 35.1624C37.476 28.1319 37.476 21.1088 37.476 14.0682C35.4089 14.0682 33.3413 14.0682 31.2267 14.0682C32.0562 12.0279 32.8731 10.0187 33.692 8.00434C33.7786 8.00434 33.8595 8.00434 33.9404 8.00434C36.3229 8.00434 38.7054 8.01292 41.0878 8.00008C42.0283 7.995 42.8814 8.24561 43.6043 8.83427C44.2938 9.39565 44.7601 10.1247 44.9124 11.0167C44.9728 11.3704 44.9957 11.7345 44.9959 12.094C45.0003 20.4598 45.0033 28.8256 44.9933 37.1914C44.9923 38.047 44.7037 38.8209 44.1545 39.4991C43.5335 40.266 42.728 40.6863 41.7757 40.8557C41.5796 40.8906 41.3766 40.8992 41.1768 40.8993C35.9718 40.9016 30.7669 40.9053 25.5619 40.8974C24.5729 40.8958 23.6854 40.5919 22.9414 39.9058C22.2932 39.3081 21.8876 38.5909 21.7688 37.7158C21.7482 37.5639 21.7297 37.4102 21.7296 37.2574C21.7273 34.2454 21.7279 31.2335 21.7279 28.2215C21.7279 28.1404 21.7279 28.0593 21.7279 27.9619C19.4451 27.9619 17.1687 27.9619 14.8695 27.9619C14.8695 31.22 14.8695 34.4834 14.8695 37.8106C14.6182 37.4936 14.3329 37.3509 13.996 37.4174C13.818 37.4525 13.6291 37.5485 13.4961 37.672C13.1896 37.9565 13.1325 38.4489 13.4248 38.8276C13.6018 39.0569 13.843 39.1555 14.1401 39.1598C14.4334 39.1641 14.6335 39.0058 14.8243 38.8171C14.8243 39.4101 14.8649 39.9824 14.8095 40.5452C14.7746 40.8995 14.3956 41.1068 14.0249 41.0597C13.7127 41.0201 13.412 40.8233 13.3595 40.4244C13.3024 39.991 12.9971 39.6979 12.6342 39.68C12.2436 39.6608 11.9162 39.9453 11.8551 40.3963C11.7999 40.8031 11.5511 41.0017 11.2179 41.0589C10.8639 41.1198 10.522 40.917 10.3932 40.5929C10.338 40.4539 10.3241 40.2988 10.2732 40.1576C10.1234 39.7416 9.63608 39.5499 9.263 39.7654C9.00169 39.9164 8.89097 40.1657 8.85148 40.4592C8.80338 40.8167 8.45158 41.0831 8.07473 41.0635C7.69766 41.0438 7.3632 40.7499 7.35456 40.3958C7.34109 39.8431 7.351 39.2898 7.351 38.6852C7.59082 39.0387 7.88948 39.2182 8.26628 39.1446C8.4593 39.1068 8.66928 39.0001 8.80611 38.8604C9.18161 38.4771 9.10681 37.9207 8.66861 37.5753C8.33126 37.3094 7.74821 37.2975 7.35819 37.8681C7.35819 34.5425 7.35819 31.2544 7.35819 27.9473C5.75981 27.9473 4.18703 27.9473 2.55573 27.9473C2.80426 27.6826 3.01322 27.4329 2.87493 27.0971C2.81405 26.9492 2.70871 26.7939 2.58001 26.705C2.27834 26.4965 1.93535 26.5359 1.65593 26.8364C1.36968 27.1444 1.39698 27.3978 1.80231 27.9454C1.43229 27.9454 1.08534 27.9552 0.73942 27.9407C0.59876 27.9348 0.453991 27.8914 0.322255 27.8377C0.0758084 27.7372 -0.0259461 27.4242 0.00557147 27.2484C0.0663822 26.9091 0.282017 26.7024 0.568599 26.6865C0.934643 26.6661 1.18057 26.4326 1.17758 26.1081C1.17434 25.7561 0.944083 25.5324 0.568408 25.5077C0.3066 25.4905 0.00631145 25.2548 0.00590698 24.885C0.00553561 24.5454 0.223526 24.2889 0.597278 24.2523C0.880551 24.2246 1.08323 24.0867 1.16272 23.824C1.23274 23.5926 1.17094 23.3613 0.965268 23.2128C0.863676 23.1394 0.726076 23.0823 0.603157 23.079C0.335774 23.072 -0.00183319 22.8088 0.00502587 22.4455C0.011581 22.0983 0.223133 21.8459 0.577243 21.8198C0.97305 21.7907 1.37265 21.8131 1.74268 21.8131C1.64824 22.0276 1.50773 22.232 1.4745 22.4526C1.43713 22.7008 1.59886 22.9127 1.80243 23.0581C2.09361 23.266 2.45075 23.2103 2.71659 22.9337C3.00812 22.6304 2.9812 22.3698 2.584 21.8221C4.1798 21.8221 5.75537 21.8221 7.3508 21.8221C7.3508 21.7213 7.3508 21.6488 7.3508 21.5763C7.35081 20.1278 7.34295 18.6793 7.35381 17.2309C7.36015 16.3863 7.63472 15.6206 8.19577 14.9907C8.55679 14.5854 8.98421 14.2388 9.38529 13.8697C9.63688 13.6381 9.89324 13.4117 10.1503 13.1861C10.6814 12.72 11.215 12.2566 11.7464 11.7909C12.0976 11.483 12.4458 11.1717 12.7972 10.864C13.324 10.4026 13.8506 9.94093 14.3808 9.48349C14.723 9.18823 15.0562 8.8791 15.4212 8.61452C15.8712 8.28839 16.3902 8.07341 16.9446 8.05353C18.1117 8.01168 19.2805 8.01784 20.4689 8.0043ZM15.8823 16.7547C15.6613 16.9486 15.4435 17.1463 15.2183 17.3352C14.982 17.5334 14.8432 17.7403 14.8524 18.0895C14.8835 19.2662 14.8642 20.4442 14.8642 21.6217C14.8642 21.6938 14.8642 21.7659 14.8642 21.8398C17.1638 21.8398 19.4399 21.8398 21.7123 21.8398C21.7123 19.2522 21.7123 16.6783 21.7123 14.0963C20.8512 14.0963 20.0057 14.102 19.1603 14.0918C18.9761 14.0896 18.8435 14.1352 18.7209 14.274C18.6019 14.4087 18.4556 14.5197 18.3192 14.6387C17.8017 15.0905 17.2834 15.5412 16.7655 15.9924C16.4795 16.2415 16.1935 16.4906 15.8823 16.7547ZM11.9801 38.3823C12.0265 37.9985 11.834 37.7359 11.5287 37.5513C11.2424 37.3782 10.9402 37.4155 10.66 37.5752C10.0839 37.9035 10.0783 38.741 10.6725 39.0899C10.9535 39.255 11.2335 39.267 11.5113 39.1158C11.7835 38.9677 11.9761 38.7508 11.9801 38.3823ZM2.86934 25.1762C2.88731 25.0922 2.92847 25.0056 2.9195 24.9245C2.86104 24.3962 2.30012 24.0193 1.83372 24.3304C1.38962 24.6266 1.33052 25.1644 1.77113 25.523C2.14696 25.8288 2.69106 25.6098 2.86934 25.1762ZM13.1838 35.9507C12.9253 35.5198 12.4002 35.4952 12.0898 35.8993C11.9457 36.0868 11.9403 36.4346 12.0784 36.6318C12.222 36.8371 12.5546 36.957 12.7789 36.8844C13.2014 36.7478 13.3624 36.4001 13.1838 35.9507ZM9.34082 35.6638C9.30268 35.6897 9.26473 35.716 9.22635 35.7416C9.011 35.8854 8.90363 36.2403 9.00336 36.4823C9.14663 36.83 9.41175 36.9421 9.68963 36.9141C10.0297 36.8797 10.3334 36.4823 10.2352 36.0971C10.1415 35.7296 9.75237 35.529 9.34082 35.6638ZM4.39186 23.5828C4.37312 23.5403 4.35649 23.4966 4.33531 23.4553C4.23579 23.2613 3.99095 23.1475 3.77937 23.1956C3.57188 23.2428 3.38989 23.4575 3.36964 23.663C3.33373 24.0274 3.63273 24.2421 3.88574 24.2457C4.20238 24.2502 4.44421 23.9443 4.39186 23.5828ZM4.38498 25.9906C4.20865 25.6685 3.97861 25.5645 3.68715 25.6752C3.44892 25.7657 3.30175 26.0818 3.38818 26.3174C3.47997 26.5675 3.78517 26.7469 4.00108 26.6775C4.29891 26.5819 4.47173 26.2927 4.38498 25.9906ZM8.42873 33.9169C8.20815 33.7345 7.95036 33.745 7.79228 33.9426C7.65569 34.1134 7.69318 34.3984 7.87022 34.5351C8.00853 34.642 8.25766 34.6343 8.39134 34.5191C8.55734 34.376 8.5785 34.1694 8.42873 33.9169ZM10.6814 34.1509C10.6815 34.1847 10.6765 34.2193 10.6824 34.2519C10.7153 34.4334 10.8809 34.5886 11.0566 34.6058C11.2536 34.625 11.4265 34.517 11.4939 34.3325C11.5604 34.1505 11.4983 33.972 11.3269 33.8521C11.0998 33.6933 10.8515 33.7959 10.6814 34.1509ZM13.7406 34.3948C13.7882 34.4423 13.8306 34.497 13.8844 34.5359C14.0289 34.6406 14.1912 34.6438 14.3295 34.5437C14.4695 34.4424 14.5801 34.3089 14.5117 34.1069C14.4329 33.8742 14.2195 33.7407 14.0057 33.7984C13.7733 33.8611 13.6545 34.1048 13.7406 34.3948ZM5.61397 26.9738C5.55685 26.987 5.49686 26.9931 5.44317 27.0147C5.29716 27.0736 5.19589 27.2934 5.24568 27.4313C5.2972 27.574 5.51634 27.719 5.63744 27.6512C5.75241 27.5868 5.88977 27.4654 5.90924 27.3508C5.9367 27.1891 5.82287 27.0427 5.61397 26.9738ZM5.80504 22.7284C5.95785 22.5398 5.95122 22.4135 5.78009 22.2534C5.65921 22.1403 5.45261 22.1481 5.3305 22.2704C5.20897 22.3921 5.20363 22.5957 5.3186 22.7242C5.43664 22.8563 5.62867 22.8671 5.80504 22.7284ZM5.92475 24.9558C5.91221 24.9119 5.91363 24.8506 5.88459 24.8274C5.78667 24.7494 5.6831 24.6421 5.5717 24.6286C5.48146 24.6177 5.33156 24.7036 5.2906 24.787C5.24455 24.8808 5.24729 25.0571 5.30882 25.1297C5.3797 25.2133 5.55126 25.2752 5.65473 25.2492C5.75491 25.2241 5.82414 25.0755 5.92475 24.9558ZM9.72038 31.7991C9.611 31.7244 9.50884 31.7464 9.443 31.85C9.39878 31.9195 9.34819 32.0311 9.37522 32.0889C9.41429 32.1724 9.51985 32.274 9.59936 32.2761C9.684 32.2782 9.79911 32.1911 9.85085 32.1108C9.92418 31.9969 9.83548 31.8977 9.72038 31.7991ZM12.4727 31.8219C12.371 31.9098 12.2775 32.0061 12.3862 32.1433C12.4711 32.2504 12.5795 32.347 12.724 32.2436C12.8189 32.1757 12.9215 32.0937 12.8398 31.9472C12.7623 31.8081 12.6753 31.6966 12.4727 31.8219ZM7.20426 23.5628C7.20686 23.657 7.1744 23.7838 7.22258 23.8356C7.26509 23.8814 7.41351 23.872 7.48461 23.8323C7.52985 23.807 7.55647 23.6615 7.52591 23.6059C7.46529 23.4956 7.35341 23.4406 7.20426 23.5628ZM7.47246 26.0153C7.35807 25.895 7.25343 25.9543 7.197 26.0615C7.16378 26.1246 7.17187 26.2715 7.21368 26.2979C7.28087 26.3404 7.41354 26.3495 7.47823 26.3087C7.56822 26.252 7.60057 26.1354 7.47246 26.0153Z" fill="#CCDBDE" stroke="#CCDBDE" stroke-width="2.34058" mask="url(#path-1-inside-1_592_112)"/>
</g>
</g>
</g>
</svg>
